<mxfile host="app.diagrams.net" agent="Mozilla/5.0 (Macintosh; Intel Mac OS X 10_15_7) AppleWebKit/537.36 (KHTML, like Gecko) Chrome/134.0.0.0 Safari/537.36" version="26.2.9" pages="3">
  <diagram name="状态流转" id="iaJiMRWaCHO9DjY36pJx">
    <mxGraphModel dx="2068" dy="1126" grid="1" gridSize="10" guides="1" tooltips="1" connect="1" arrows="1" fold="1" page="1" pageScale="1" pageWidth="827" pageHeight="1169" math="0" shadow="0">
      <root>
        <mxCell id="0" />
        <mxCell id="1" parent="0" />
        <mxCell id="X4dzS5YguDMyNIEwRo96-78" value="单品状态流转" style="rounded=0;whiteSpace=wrap;html=1;fontSize=16;fontStyle=1;strokeColor=#B3B3B3;fontColor=#666666;" parent="1" vertex="1">
          <mxGeometry x="70" y="70" width="120" height="40" as="geometry" />
        </mxCell>
        <mxCell id="X4dzS5YguDMyNIEwRo96-79" value="" style="rounded=0;whiteSpace=wrap;html=1;fillColor=default;strokeColor=#B3B3B3;" parent="1" vertex="1">
          <mxGeometry x="70" y="109" width="590" height="192" as="geometry" />
        </mxCell>
        <mxCell id="X4dzS5YguDMyNIEwRo96-76" value="" style="rounded=0;whiteSpace=wrap;html=1;fillColor=#f5f5f5;fontColor=#333333;strokeColor=#666666;" parent="1" vertex="1">
          <mxGeometry x="532" y="121" width="120" height="60" as="geometry" />
        </mxCell>
        <mxCell id="X4dzS5YguDMyNIEwRo96-28" value="" style="rounded=0;whiteSpace=wrap;html=1;fillColor=none;dashed=1;strokeColor=#808080;" parent="1" vertex="1">
          <mxGeometry x="1290" y="204" width="360" height="80" as="geometry" />
        </mxCell>
        <mxCell id="X4dzS5YguDMyNIEwRo96-1" value="操作" style="rounded=0;whiteSpace=wrap;html=1;" parent="1" vertex="1">
          <mxGeometry x="860" y="104" width="120" height="60" as="geometry" />
        </mxCell>
        <mxCell id="X4dzS5YguDMyNIEwRo96-2" value="审核" style="rounded=0;whiteSpace=wrap;html=1;" parent="1" vertex="1">
          <mxGeometry x="1080" y="104" width="120" height="60" as="geometry" />
        </mxCell>
        <mxCell id="X4dzS5YguDMyNIEwRo96-3" value="上架" style="rounded=0;whiteSpace=wrap;html=1;" parent="1" vertex="1">
          <mxGeometry x="1300" y="104" width="120" height="60" as="geometry" />
        </mxCell>
        <mxCell id="X4dzS5YguDMyNIEwRo96-4" value="开售" style="rounded=0;whiteSpace=wrap;html=1;" parent="1" vertex="1">
          <mxGeometry x="1520" y="104" width="120" height="60" as="geometry" />
        </mxCell>
        <mxCell id="X4dzS5YguDMyNIEwRo96-14" style="edgeStyle=orthogonalEdgeStyle;rounded=0;orthogonalLoop=1;jettySize=auto;html=1;exitX=1;exitY=0.5;exitDx=0;exitDy=0;entryX=0;entryY=0.5;entryDx=0;entryDy=0;" parent="1" source="X4dzS5YguDMyNIEwRo96-5" target="X4dzS5YguDMyNIEwRo96-7" edge="1">
          <mxGeometry relative="1" as="geometry" />
        </mxCell>
        <mxCell id="X4dzS5YguDMyNIEwRo96-5" value="新增" style="rounded=0;whiteSpace=wrap;html=1;" parent="1" vertex="1">
          <mxGeometry x="860" y="324" width="120" height="60" as="geometry" />
        </mxCell>
        <mxCell id="X4dzS5YguDMyNIEwRo96-27" style="edgeStyle=orthogonalEdgeStyle;rounded=0;orthogonalLoop=1;jettySize=auto;html=1;exitX=0.5;exitY=0;exitDx=0;exitDy=0;entryX=0.5;entryY=1;entryDx=0;entryDy=0;" parent="1" source="X4dzS5YguDMyNIEwRo96-6" target="X4dzS5YguDMyNIEwRo96-5" edge="1">
          <mxGeometry relative="1" as="geometry" />
        </mxCell>
        <mxCell id="X4dzS5YguDMyNIEwRo96-6" value="删除" style="rounded=0;whiteSpace=wrap;html=1;" parent="1" vertex="1">
          <mxGeometry x="860" y="434" width="120" height="60" as="geometry" />
        </mxCell>
        <mxCell id="X4dzS5YguDMyNIEwRo96-16" style="edgeStyle=orthogonalEdgeStyle;rounded=0;orthogonalLoop=1;jettySize=auto;html=1;exitX=0.5;exitY=1;exitDx=0;exitDy=0;strokeColor=#0F47FF;" parent="1" source="X4dzS5YguDMyNIEwRo96-7" target="X4dzS5YguDMyNIEwRo96-8" edge="1">
          <mxGeometry relative="1" as="geometry" />
        </mxCell>
        <mxCell id="X4dzS5YguDMyNIEwRo96-18" style="edgeStyle=orthogonalEdgeStyle;rounded=0;orthogonalLoop=1;jettySize=auto;html=1;exitX=0.25;exitY=0;exitDx=0;exitDy=0;entryX=0.5;entryY=0;entryDx=0;entryDy=0;strokeColor=#0F47FF;" parent="1" source="X4dzS5YguDMyNIEwRo96-7" target="X4dzS5YguDMyNIEwRo96-5" edge="1">
          <mxGeometry relative="1" as="geometry">
            <Array as="points">
              <mxPoint x="1110" y="244" />
              <mxPoint x="920" y="244" />
            </Array>
          </mxGeometry>
        </mxCell>
        <mxCell id="X4dzS5YguDMyNIEwRo96-20" style="edgeStyle=orthogonalEdgeStyle;rounded=0;orthogonalLoop=1;jettySize=auto;html=1;exitX=1;exitY=0.5;exitDx=0;exitDy=0;entryX=0;entryY=0.5;entryDx=0;entryDy=0;strokeColor=#0F47FF;" parent="1" source="X4dzS5YguDMyNIEwRo96-7" target="X4dzS5YguDMyNIEwRo96-10" edge="1">
          <mxGeometry relative="1" as="geometry">
            <Array as="points">
              <mxPoint x="1220" y="354" />
              <mxPoint x="1220" y="354" />
            </Array>
          </mxGeometry>
        </mxCell>
        <mxCell id="X4dzS5YguDMyNIEwRo96-7" value="审核中" style="rounded=0;whiteSpace=wrap;html=1;" parent="1" vertex="1">
          <mxGeometry x="1080" y="324" width="120" height="60" as="geometry" />
        </mxCell>
        <mxCell id="X4dzS5YguDMyNIEwRo96-19" style="edgeStyle=orthogonalEdgeStyle;rounded=0;orthogonalLoop=1;jettySize=auto;html=1;exitX=0;exitY=0.5;exitDx=0;exitDy=0;entryX=0;entryY=0.75;entryDx=0;entryDy=0;strokeColor=#F8CECC;" parent="1" source="X4dzS5YguDMyNIEwRo96-8" target="X4dzS5YguDMyNIEwRo96-7" edge="1">
          <mxGeometry relative="1" as="geometry">
            <Array as="points">
              <mxPoint x="1050" y="464" />
              <mxPoint x="1050" y="369" />
            </Array>
          </mxGeometry>
        </mxCell>
        <mxCell id="X4dzS5YguDMyNIEwRo96-8" value="审核拒绝" style="rounded=0;whiteSpace=wrap;html=1;" parent="1" vertex="1">
          <mxGeometry x="1080" y="434" width="120" height="60" as="geometry" />
        </mxCell>
        <mxCell id="X4dzS5YguDMyNIEwRo96-21" style="edgeStyle=orthogonalEdgeStyle;rounded=0;orthogonalLoop=1;jettySize=auto;html=1;exitX=0;exitY=0.5;exitDx=0;exitDy=0;entryX=0.75;entryY=0;entryDx=0;entryDy=0;strokeColor=#FF9933;" parent="1" source="X4dzS5YguDMyNIEwRo96-9" target="X4dzS5YguDMyNIEwRo96-7" edge="1">
          <mxGeometry relative="1" as="geometry" />
        </mxCell>
        <mxCell id="X4dzS5YguDMyNIEwRo96-30" style="edgeStyle=orthogonalEdgeStyle;rounded=0;orthogonalLoop=1;jettySize=auto;html=1;exitX=1;exitY=0.25;exitDx=0;exitDy=0;entryX=0;entryY=0.25;entryDx=0;entryDy=0;dashed=1;strokeColor=#808080;" parent="1" source="X4dzS5YguDMyNIEwRo96-9" target="X4dzS5YguDMyNIEwRo96-11" edge="1">
          <mxGeometry relative="1" as="geometry" />
        </mxCell>
        <mxCell id="X4dzS5YguDMyNIEwRo96-9" value="上架" style="rounded=0;whiteSpace=wrap;html=1;" parent="1" vertex="1">
          <mxGeometry x="1300" y="214" width="120" height="60" as="geometry" />
        </mxCell>
        <mxCell id="X4dzS5YguDMyNIEwRo96-22" style="edgeStyle=orthogonalEdgeStyle;rounded=0;orthogonalLoop=1;jettySize=auto;html=1;exitX=0.5;exitY=0;exitDx=0;exitDy=0;strokeColor=#00CC00;" parent="1" source="X4dzS5YguDMyNIEwRo96-10" target="X4dzS5YguDMyNIEwRo96-9" edge="1">
          <mxGeometry relative="1" as="geometry" />
        </mxCell>
        <mxCell id="X4dzS5YguDMyNIEwRo96-23" style="edgeStyle=orthogonalEdgeStyle;rounded=0;orthogonalLoop=1;jettySize=auto;html=1;exitX=1;exitY=0.5;exitDx=0;exitDy=0;entryX=0;entryY=0.75;entryDx=0;entryDy=0;strokeColor=#00CC00;" parent="1" source="X4dzS5YguDMyNIEwRo96-10" target="X4dzS5YguDMyNIEwRo96-11" edge="1">
          <mxGeometry relative="1" as="geometry" />
        </mxCell>
        <mxCell id="X4dzS5YguDMyNIEwRo96-24" style="edgeStyle=orthogonalEdgeStyle;rounded=0;orthogonalLoop=1;jettySize=auto;html=1;exitX=1;exitY=0.5;exitDx=0;exitDy=0;entryX=0;entryY=0.5;entryDx=0;entryDy=0;strokeColor=#00CC00;" parent="1" source="X4dzS5YguDMyNIEwRo96-10" target="X4dzS5YguDMyNIEwRo96-12" edge="1">
          <mxGeometry relative="1" as="geometry" />
        </mxCell>
        <mxCell id="X4dzS5YguDMyNIEwRo96-25" style="edgeStyle=orthogonalEdgeStyle;rounded=0;orthogonalLoop=1;jettySize=auto;html=1;exitX=1;exitY=0.5;exitDx=0;exitDy=0;entryX=0;entryY=0.25;entryDx=0;entryDy=0;strokeColor=#00CC00;" parent="1" source="X4dzS5YguDMyNIEwRo96-10" target="X4dzS5YguDMyNIEwRo96-13" edge="1">
          <mxGeometry relative="1" as="geometry" />
        </mxCell>
        <mxCell id="X4dzS5YguDMyNIEwRo96-10" value="下架" style="rounded=0;whiteSpace=wrap;html=1;" parent="1" vertex="1">
          <mxGeometry x="1300" y="324" width="120" height="60" as="geometry" />
        </mxCell>
        <mxCell id="X4dzS5YguDMyNIEwRo96-11" value="上架未开售" style="rounded=0;whiteSpace=wrap;html=1;" parent="1" vertex="1">
          <mxGeometry x="1520" y="214" width="120" height="60" as="geometry" />
        </mxCell>
        <mxCell id="X4dzS5YguDMyNIEwRo96-12" value="上架已开售" style="rounded=0;whiteSpace=wrap;html=1;" parent="1" vertex="1">
          <mxGeometry x="1520" y="324" width="120" height="60" as="geometry" />
        </mxCell>
        <mxCell id="X4dzS5YguDMyNIEwRo96-13" value="上架已停售" style="rounded=0;whiteSpace=wrap;html=1;" parent="1" vertex="1">
          <mxGeometry x="1520" y="444" width="120" height="60" as="geometry" />
        </mxCell>
        <mxCell id="X4dzS5YguDMyNIEwRo96-29" value="程&lt;div style=&quot;font-size: 15px;&quot;&gt;序&lt;/div&gt;&lt;div style=&quot;font-size: 15px;&quot;&gt;绑&lt;/div&gt;&lt;div style=&quot;font-size: 15px;&quot;&gt;定&lt;/div&gt;" style="rounded=0;whiteSpace=wrap;html=1;fillColor=default;dashed=1;strokeColor=#808080;fontSize=15;fontColor=#666666;" parent="1" vertex="1">
          <mxGeometry x="1650" y="204" width="30" height="80" as="geometry" />
        </mxCell>
        <mxCell id="X4dzS5YguDMyNIEwRo96-54" style="edgeStyle=orthogonalEdgeStyle;rounded=0;orthogonalLoop=1;jettySize=auto;html=1;exitX=0.5;exitY=1;exitDx=0;exitDy=0;entryX=0.5;entryY=0;entryDx=0;entryDy=0;strokeColor=#999999;dashed=1;" parent="1" source="X4dzS5YguDMyNIEwRo96-33" target="X4dzS5YguDMyNIEwRo96-35" edge="1">
          <mxGeometry relative="1" as="geometry" />
        </mxCell>
        <mxCell id="X4dzS5YguDMyNIEwRo96-148" style="edgeStyle=orthogonalEdgeStyle;rounded=0;orthogonalLoop=1;jettySize=auto;html=1;exitX=1;exitY=0.25;exitDx=0;exitDy=0;entryX=0;entryY=0.25;entryDx=0;entryDy=0;strokeWidth=2;strokeColor=#999999;" parent="1" source="X4dzS5YguDMyNIEwRo96-33" target="X4dzS5YguDMyNIEwRo96-39" edge="1">
          <mxGeometry relative="1" as="geometry" />
        </mxCell>
        <mxCell id="X4dzS5YguDMyNIEwRo96-33" value="新增" style="rounded=0;whiteSpace=wrap;html=1;" parent="1" vertex="1">
          <mxGeometry x="81" y="119" width="120" height="60" as="geometry" />
        </mxCell>
        <mxCell id="X4dzS5YguDMyNIEwRo96-35" value="删除" style="rounded=0;whiteSpace=wrap;html=1;" parent="1" vertex="1">
          <mxGeometry x="81" y="229" width="120" height="60" as="geometry" />
        </mxCell>
        <mxCell id="X4dzS5YguDMyNIEwRo96-57" style="edgeStyle=orthogonalEdgeStyle;rounded=0;orthogonalLoop=1;jettySize=auto;html=1;exitX=0.25;exitY=1;exitDx=0;exitDy=0;entryX=0.25;entryY=0;entryDx=0;entryDy=0;strokeColor=#999999;" parent="1" source="X4dzS5YguDMyNIEwRo96-39" target="X4dzS5YguDMyNIEwRo96-41" edge="1">
          <mxGeometry relative="1" as="geometry" />
        </mxCell>
        <mxCell id="X4dzS5YguDMyNIEwRo96-72" style="edgeStyle=orthogonalEdgeStyle;rounded=0;orthogonalLoop=1;jettySize=auto;html=1;exitX=1;exitY=0.5;exitDx=0;exitDy=0;entryX=0;entryY=0.5;entryDx=0;entryDy=0;strokeWidth=2;strokeColor=#999999;" parent="1" source="X4dzS5YguDMyNIEwRo96-39" target="X4dzS5YguDMyNIEwRo96-44" edge="1">
          <mxGeometry relative="1" as="geometry" />
        </mxCell>
        <mxCell id="X4dzS5YguDMyNIEwRo96-149" style="edgeStyle=orthogonalEdgeStyle;rounded=0;orthogonalLoop=1;jettySize=auto;html=1;exitX=0;exitY=0.75;exitDx=0;exitDy=0;entryX=1;entryY=0.75;entryDx=0;entryDy=0;strokeColor=#999999;" parent="1" source="X4dzS5YguDMyNIEwRo96-39" target="X4dzS5YguDMyNIEwRo96-33" edge="1">
          <mxGeometry relative="1" as="geometry" />
        </mxCell>
        <mxCell id="X4dzS5YguDMyNIEwRo96-39" value="审核中" style="rounded=0;whiteSpace=wrap;html=1;" parent="1" vertex="1">
          <mxGeometry x="301" y="119" width="120" height="60" as="geometry" />
        </mxCell>
        <mxCell id="X4dzS5YguDMyNIEwRo96-58" style="edgeStyle=orthogonalEdgeStyle;rounded=0;orthogonalLoop=1;jettySize=auto;html=1;exitX=0.75;exitY=0;exitDx=0;exitDy=0;entryX=0.75;entryY=1;entryDx=0;entryDy=0;strokeColor=#999999;" parent="1" source="X4dzS5YguDMyNIEwRo96-41" target="X4dzS5YguDMyNIEwRo96-39" edge="1">
          <mxGeometry relative="1" as="geometry" />
        </mxCell>
        <mxCell id="X4dzS5YguDMyNIEwRo96-41" value="审核拒绝" style="rounded=0;whiteSpace=wrap;html=1;" parent="1" vertex="1">
          <mxGeometry x="301" y="229" width="120" height="60" as="geometry" />
        </mxCell>
        <mxCell id="X4dzS5YguDMyNIEwRo96-75" style="edgeStyle=orthogonalEdgeStyle;rounded=0;orthogonalLoop=1;jettySize=auto;html=1;exitX=0;exitY=0.5;exitDx=0;exitDy=0;entryX=1;entryY=0.75;entryDx=0;entryDy=0;strokeWidth=2;strokeColor=#999999;" parent="1" source="X4dzS5YguDMyNIEwRo96-49" target="X4dzS5YguDMyNIEwRo96-39" edge="1">
          <mxGeometry relative="1" as="geometry">
            <Array as="points">
              <mxPoint x="450" y="259" />
              <mxPoint x="450" y="164" />
            </Array>
          </mxGeometry>
        </mxCell>
        <mxCell id="X4dzS5YguDMyNIEwRo96-49" value="下架" style="rounded=0;whiteSpace=wrap;html=1;" parent="1" vertex="1">
          <mxGeometry x="530" y="229" width="120" height="60" as="geometry" />
        </mxCell>
        <mxCell id="X4dzS5YguDMyNIEwRo96-73" style="edgeStyle=orthogonalEdgeStyle;rounded=0;orthogonalLoop=1;jettySize=auto;html=1;exitX=0.857;exitY=0.983;exitDx=0;exitDy=0;exitPerimeter=0;strokeWidth=2;strokeColor=#999999;" parent="1" source="X4dzS5YguDMyNIEwRo96-44" target="X4dzS5YguDMyNIEwRo96-49" edge="1">
          <mxGeometry relative="1" as="geometry" />
        </mxCell>
        <mxCell id="X4dzS5YguDMyNIEwRo96-44" value="上架" style="rounded=0;whiteSpace=wrap;html=1;" parent="1" vertex="1">
          <mxGeometry x="530" y="119" width="70" height="60" as="geometry" />
        </mxCell>
        <mxCell id="X4dzS5YguDMyNIEwRo96-50" value="未开售" style="rounded=0;whiteSpace=wrap;html=1;fillColor=#dae8fc;strokeColor=#6c8ebf;" parent="1" vertex="1">
          <mxGeometry x="600" y="119" width="50" height="20" as="geometry" />
        </mxCell>
        <mxCell id="X4dzS5YguDMyNIEwRo96-51" value="已开售" style="rounded=0;whiteSpace=wrap;html=1;" parent="1" vertex="1">
          <mxGeometry x="600" y="139" width="50" height="20" as="geometry" />
        </mxCell>
        <mxCell id="X4dzS5YguDMyNIEwRo96-52" value="已停售" style="rounded=0;whiteSpace=wrap;html=1;" parent="1" vertex="1">
          <mxGeometry x="600" y="159" width="50" height="20" as="geometry" />
        </mxCell>
        <mxCell id="X4dzS5YguDMyNIEwRo96-100" value="" style="group" parent="1" vertex="1" connectable="0">
          <mxGeometry x="70" y="349" width="590" height="250" as="geometry" />
        </mxCell>
        <mxCell id="X4dzS5YguDMyNIEwRo96-80" value="组合状态流转" style="rounded=0;whiteSpace=wrap;html=1;fontSize=16;fontStyle=1;strokeColor=#B3B3B3;fontColor=#666666;" parent="X4dzS5YguDMyNIEwRo96-100" vertex="1">
          <mxGeometry width="120" height="40" as="geometry" />
        </mxCell>
        <mxCell id="X4dzS5YguDMyNIEwRo96-81" value="" style="rounded=0;whiteSpace=wrap;html=1;fillColor=default;strokeColor=#B3B3B3;" parent="X4dzS5YguDMyNIEwRo96-100" vertex="1">
          <mxGeometry y="39" width="590" height="211" as="geometry" />
        </mxCell>
        <mxCell id="X4dzS5YguDMyNIEwRo96-131" style="edgeStyle=orthogonalEdgeStyle;rounded=0;orthogonalLoop=1;jettySize=auto;html=1;exitX=1;exitY=1;exitDx=0;exitDy=0;entryX=0.5;entryY=1;entryDx=0;entryDy=0;strokeColor=#999999;dashed=1;" parent="1" source="X4dzS5YguDMyNIEwRo96-132" target="X4dzS5YguDMyNIEwRo96-147" edge="1">
          <mxGeometry relative="1" as="geometry">
            <mxPoint x="422" y="649" as="targetPoint" />
            <Array as="points">
              <mxPoint x="652" y="589" />
              <mxPoint x="142" y="589" />
            </Array>
          </mxGeometry>
        </mxCell>
        <mxCell id="X4dzS5YguDMyNIEwRo96-132" value="进行中" style="rounded=0;whiteSpace=wrap;html=1;" parent="1" vertex="1">
          <mxGeometry x="532" y="399" width="120" height="60" as="geometry" />
        </mxCell>
        <mxCell id="X4dzS5YguDMyNIEwRo96-133" style="edgeStyle=orthogonalEdgeStyle;rounded=0;orthogonalLoop=1;jettySize=auto;html=1;exitX=1;exitY=0.25;exitDx=0;exitDy=0;entryX=0;entryY=0.25;entryDx=0;entryDy=0;strokeColor=#999999;strokeWidth=2;" parent="1" source="X4dzS5YguDMyNIEwRo96-135" target="X4dzS5YguDMyNIEwRo96-139" edge="1">
          <mxGeometry relative="1" as="geometry" />
        </mxCell>
        <mxCell id="X4dzS5YguDMyNIEwRo96-134" style="edgeStyle=orthogonalEdgeStyle;rounded=0;orthogonalLoop=1;jettySize=auto;html=1;exitX=0.5;exitY=1;exitDx=0;exitDy=0;entryX=0.5;entryY=0;entryDx=0;entryDy=0;strokeColor=#999999;dashed=1;" parent="1" source="X4dzS5YguDMyNIEwRo96-135" target="X4dzS5YguDMyNIEwRo96-147" edge="1">
          <mxGeometry relative="1" as="geometry">
            <mxPoint x="302" y="649" as="targetPoint" />
            <Array as="points" />
          </mxGeometry>
        </mxCell>
        <mxCell id="X4dzS5YguDMyNIEwRo96-135" value="新增" style="rounded=0;whiteSpace=wrap;html=1;" parent="1" vertex="1">
          <mxGeometry x="82" y="399" width="120" height="60" as="geometry" />
        </mxCell>
        <mxCell id="X4dzS5YguDMyNIEwRo96-136" style="edgeStyle=orthogonalEdgeStyle;rounded=0;orthogonalLoop=1;jettySize=auto;html=1;exitX=0.25;exitY=1;exitDx=0;exitDy=0;entryX=0.25;entryY=0;entryDx=0;entryDy=0;strokeColor=#999999;" parent="1" source="X4dzS5YguDMyNIEwRo96-139" target="X4dzS5YguDMyNIEwRo96-142" edge="1">
          <mxGeometry relative="1" as="geometry" />
        </mxCell>
        <mxCell id="X4dzS5YguDMyNIEwRo96-137" style="edgeStyle=orthogonalEdgeStyle;rounded=0;orthogonalLoop=1;jettySize=auto;html=1;exitX=1;exitY=0.5;exitDx=0;exitDy=0;entryX=0;entryY=0.5;entryDx=0;entryDy=0;strokeColor=#999999;strokeWidth=2;" parent="1" source="X4dzS5YguDMyNIEwRo96-139" edge="1">
          <mxGeometry relative="1" as="geometry">
            <mxPoint x="531" y="429" as="targetPoint" />
          </mxGeometry>
        </mxCell>
        <mxCell id="X4dzS5YguDMyNIEwRo96-138" style="edgeStyle=orthogonalEdgeStyle;rounded=0;orthogonalLoop=1;jettySize=auto;html=1;exitX=0;exitY=0.75;exitDx=0;exitDy=0;entryX=1;entryY=0.75;entryDx=0;entryDy=0;strokeColor=#999999;" parent="1" source="X4dzS5YguDMyNIEwRo96-139" target="X4dzS5YguDMyNIEwRo96-135" edge="1">
          <mxGeometry relative="1" as="geometry" />
        </mxCell>
        <mxCell id="X4dzS5YguDMyNIEwRo96-139" value="审核中" style="rounded=0;whiteSpace=wrap;html=1;" parent="1" vertex="1">
          <mxGeometry x="302" y="399" width="120" height="60" as="geometry" />
        </mxCell>
        <mxCell id="X4dzS5YguDMyNIEwRo96-140" style="edgeStyle=orthogonalEdgeStyle;rounded=0;orthogonalLoop=1;jettySize=auto;html=1;exitX=0.75;exitY=0;exitDx=0;exitDy=0;entryX=0.75;entryY=1;entryDx=0;entryDy=0;strokeColor=#999999;" parent="1" source="X4dzS5YguDMyNIEwRo96-142" target="X4dzS5YguDMyNIEwRo96-139" edge="1">
          <mxGeometry relative="1" as="geometry" />
        </mxCell>
        <mxCell id="X4dzS5YguDMyNIEwRo96-141" style="edgeStyle=orthogonalEdgeStyle;rounded=0;orthogonalLoop=1;jettySize=auto;html=1;exitX=0;exitY=0.5;exitDx=0;exitDy=0;entryX=1;entryY=0.5;entryDx=0;entryDy=0;strokeColor=#999999;dashed=1;" parent="1" source="X4dzS5YguDMyNIEwRo96-142" target="X4dzS5YguDMyNIEwRo96-147" edge="1">
          <mxGeometry relative="1" as="geometry">
            <mxPoint x="362" y="619" as="targetPoint" />
          </mxGeometry>
        </mxCell>
        <mxCell id="X4dzS5YguDMyNIEwRo96-142" value="审核拒绝" style="rounded=0;whiteSpace=wrap;html=1;" parent="1" vertex="1">
          <mxGeometry x="302" y="509" width="120" height="60" as="geometry" />
        </mxCell>
        <mxCell id="X4dzS5YguDMyNIEwRo96-143" style="edgeStyle=orthogonalEdgeStyle;rounded=0;orthogonalLoop=1;jettySize=auto;html=1;exitX=0;exitY=0.5;exitDx=0;exitDy=0;entryX=1;entryY=0.75;entryDx=0;entryDy=0;strokeColor=#999999;strokeWidth=2;" parent="1" source="X4dzS5YguDMyNIEwRo96-145" target="X4dzS5YguDMyNIEwRo96-139" edge="1">
          <mxGeometry relative="1" as="geometry">
            <Array as="points">
              <mxPoint x="451" y="539" />
              <mxPoint x="451" y="444" />
            </Array>
          </mxGeometry>
        </mxCell>
        <mxCell id="X4dzS5YguDMyNIEwRo96-144" style="edgeStyle=orthogonalEdgeStyle;rounded=0;orthogonalLoop=1;jettySize=auto;html=1;exitX=1;exitY=0.5;exitDx=0;exitDy=0;entryX=0.5;entryY=1;entryDx=0;entryDy=0;strokeColor=#999999;dashed=1;" parent="1" source="X4dzS5YguDMyNIEwRo96-145" target="X4dzS5YguDMyNIEwRo96-147" edge="1">
          <mxGeometry relative="1" as="geometry">
            <mxPoint x="422" y="649" as="targetPoint" />
            <Array as="points">
              <mxPoint x="652" y="539" />
              <mxPoint x="652" y="589" />
              <mxPoint x="142" y="589" />
            </Array>
          </mxGeometry>
        </mxCell>
        <mxCell id="X4dzS5YguDMyNIEwRo96-145" value="已暂停" style="rounded=0;whiteSpace=wrap;html=1;" parent="1" vertex="1">
          <mxGeometry x="532" y="509" width="108" height="60" as="geometry" />
        </mxCell>
        <mxCell id="X4dzS5YguDMyNIEwRo96-146" value="" style="endArrow=classic;html=1;rounded=0;exitX=0.5;exitY=1;exitDx=0;exitDy=0;entryX=0.556;entryY=0;entryDx=0;entryDy=0;entryPerimeter=0;strokeColor=#999999;strokeWidth=2;" parent="1" source="X4dzS5YguDMyNIEwRo96-132" target="X4dzS5YguDMyNIEwRo96-145" edge="1">
          <mxGeometry width="50" height="50" relative="1" as="geometry">
            <mxPoint x="520" y="499" as="sourcePoint" />
            <mxPoint x="570" y="449" as="targetPoint" />
          </mxGeometry>
        </mxCell>
        <mxCell id="X4dzS5YguDMyNIEwRo96-147" value="删除" style="shape=datastore;whiteSpace=wrap;html=1;" parent="1" vertex="1">
          <mxGeometry x="82" y="509" width="120" height="60" as="geometry" />
        </mxCell>
        <mxCell id="_c4iYcdBWdLde98xJlpJ-4" value="" style="group" vertex="1" connectable="0" parent="1">
          <mxGeometry x="860" y="540" width="790" height="60" as="geometry" />
        </mxCell>
        <mxCell id="_c4iYcdBWdLde98xJlpJ-2" value="" style="rounded=0;whiteSpace=wrap;html=1;fillColor=none;" vertex="1" parent="_c4iYcdBWdLde98xJlpJ-4">
          <mxGeometry x="80" width="710" height="60" as="geometry" />
        </mxCell>
        <mxCell id="_c4iYcdBWdLde98xJlpJ-1" value="1:新增 2:审核中 3:审核拒绝 4:上架 5:下架 6:删除 7:上架未开售 8:上架已开售 9:上架已停售 10:组合商品进行中 11:组合商品已暂停" style="text;html=1;align=center;verticalAlign=middle;resizable=0;points=[];autosize=1;strokeColor=none;fillColor=none;fontSize=12;fontColor=#666666;" vertex="1" parent="_c4iYcdBWdLde98xJlpJ-4">
          <mxGeometry x="80" y="15" width="710" height="30" as="geometry" />
        </mxCell>
        <mxCell id="_c4iYcdBWdLde98xJlpJ-3" value="商品状态" style="rounded=0;whiteSpace=wrap;html=1;fontStyle=1;fontSize=14;fontColor=#333333;" vertex="1" parent="_c4iYcdBWdLde98xJlpJ-4">
          <mxGeometry width="80" height="60" as="geometry" />
        </mxCell>
      </root>
    </mxGraphModel>
  </diagram>
  <diagram id="KPPuV1ORbbsG_WngxWTZ" name="数据库关联关系">
    <mxGraphModel dx="2074" dy="1121" grid="1" gridSize="10" guides="1" tooltips="1" connect="1" arrows="1" fold="1" page="1" pageScale="1" pageWidth="827" pageHeight="1169" math="0" shadow="0">
      <root>
        <mxCell id="0" />
        <mxCell id="1" parent="0" />
        <mxCell id="RdPDJY-nT7dJ_Un5NEoN-1" value="product_entity" style="shape=table;startSize=30;container=1;collapsible=0;childLayout=tableLayout;fixedRows=1;rowLines=0;fontStyle=0;strokeColor=default;fontSize=16;" vertex="1" parent="1">
          <mxGeometry x="841" y="395" width="180" height="120" as="geometry" />
        </mxCell>
        <mxCell id="RdPDJY-nT7dJ_Un5NEoN-2" value="" style="shape=tableRow;horizontal=0;startSize=0;swimlaneHead=0;swimlaneBody=0;top=0;left=0;bottom=0;right=0;collapsible=0;dropTarget=0;fillColor=none;points=[[0,0.5],[1,0.5]];portConstraint=eastwest;strokeColor=inherit;fontSize=16;" vertex="1" parent="RdPDJY-nT7dJ_Un5NEoN-1">
          <mxGeometry y="30" width="180" height="30" as="geometry" />
        </mxCell>
        <mxCell id="RdPDJY-nT7dJ_Un5NEoN-3" value="1" style="shape=partialRectangle;html=1;whiteSpace=wrap;connectable=0;fillColor=none;top=0;left=0;bottom=0;right=0;overflow=hidden;pointerEvents=1;strokeColor=inherit;fontSize=16;" vertex="1" parent="RdPDJY-nT7dJ_Un5NEoN-2">
          <mxGeometry width="40" height="30" as="geometry">
            <mxRectangle width="40" height="30" as="alternateBounds" />
          </mxGeometry>
        </mxCell>
        <mxCell id="RdPDJY-nT7dJ_Un5NEoN-4" value="spu_id" style="shape=partialRectangle;html=1;whiteSpace=wrap;connectable=0;fillColor=none;top=0;left=0;bottom=0;right=0;align=left;spacingLeft=6;overflow=hidden;strokeColor=inherit;fontSize=16;" vertex="1" parent="RdPDJY-nT7dJ_Un5NEoN-2">
          <mxGeometry x="40" width="140" height="30" as="geometry">
            <mxRectangle width="140" height="30" as="alternateBounds" />
          </mxGeometry>
        </mxCell>
        <mxCell id="RdPDJY-nT7dJ_Un5NEoN-5" value="" style="shape=tableRow;horizontal=0;startSize=0;swimlaneHead=0;swimlaneBody=0;top=0;left=0;bottom=0;right=0;collapsible=0;dropTarget=0;fillColor=none;points=[[0,0.5],[1,0.5]];portConstraint=eastwest;strokeColor=inherit;fontSize=16;" vertex="1" parent="RdPDJY-nT7dJ_Un5NEoN-1">
          <mxGeometry y="60" width="180" height="30" as="geometry" />
        </mxCell>
        <mxCell id="RdPDJY-nT7dJ_Un5NEoN-6" value="2" style="shape=partialRectangle;html=1;whiteSpace=wrap;connectable=0;fillColor=none;top=0;left=0;bottom=0;right=0;overflow=hidden;strokeColor=inherit;fontSize=16;" vertex="1" parent="RdPDJY-nT7dJ_Un5NEoN-5">
          <mxGeometry width="40" height="30" as="geometry">
            <mxRectangle width="40" height="30" as="alternateBounds" />
          </mxGeometry>
        </mxCell>
        <mxCell id="RdPDJY-nT7dJ_Un5NEoN-7" value="sku_id" style="shape=partialRectangle;html=1;whiteSpace=wrap;connectable=0;fillColor=none;top=0;left=0;bottom=0;right=0;align=left;spacingLeft=6;overflow=hidden;strokeColor=inherit;fontSize=16;" vertex="1" parent="RdPDJY-nT7dJ_Un5NEoN-5">
          <mxGeometry x="40" width="140" height="30" as="geometry">
            <mxRectangle width="140" height="30" as="alternateBounds" />
          </mxGeometry>
        </mxCell>
        <mxCell id="RdPDJY-nT7dJ_Un5NEoN-8" value="" style="shape=tableRow;horizontal=0;startSize=0;swimlaneHead=0;swimlaneBody=0;top=0;left=0;bottom=0;right=0;collapsible=0;dropTarget=0;fillColor=none;points=[[0,0.5],[1,0.5]];portConstraint=eastwest;strokeColor=inherit;fontSize=16;" vertex="1" parent="RdPDJY-nT7dJ_Un5NEoN-1">
          <mxGeometry y="90" width="180" height="30" as="geometry" />
        </mxCell>
        <mxCell id="RdPDJY-nT7dJ_Un5NEoN-9" value="3" style="shape=partialRectangle;html=1;whiteSpace=wrap;connectable=0;fillColor=none;top=0;left=0;bottom=0;right=0;overflow=hidden;strokeColor=inherit;fontSize=16;" vertex="1" parent="RdPDJY-nT7dJ_Un5NEoN-8">
          <mxGeometry width="40" height="30" as="geometry">
            <mxRectangle width="40" height="30" as="alternateBounds" />
          </mxGeometry>
        </mxCell>
        <mxCell id="RdPDJY-nT7dJ_Un5NEoN-10" value="entity_id" style="shape=partialRectangle;html=1;whiteSpace=wrap;connectable=0;fillColor=none;top=0;left=0;bottom=0;right=0;align=left;spacingLeft=6;overflow=hidden;strokeColor=inherit;fontSize=16;" vertex="1" parent="RdPDJY-nT7dJ_Un5NEoN-8">
          <mxGeometry x="40" width="140" height="30" as="geometry">
            <mxRectangle width="140" height="30" as="alternateBounds" />
          </mxGeometry>
        </mxCell>
        <mxCell id="RdPDJY-nT7dJ_Un5NEoN-11" value="product_spu" style="shape=table;startSize=30;container=1;collapsible=0;childLayout=tableLayout;fixedRows=1;rowLines=0;fontStyle=0;strokeColor=default;fontSize=16;" vertex="1" parent="1">
          <mxGeometry x="441" y="185" width="180" height="120" as="geometry" />
        </mxCell>
        <mxCell id="RdPDJY-nT7dJ_Un5NEoN-12" value="" style="shape=tableRow;horizontal=0;startSize=0;swimlaneHead=0;swimlaneBody=0;top=0;left=0;bottom=0;right=0;collapsible=0;dropTarget=0;fillColor=none;points=[[0,0.5],[1,0.5]];portConstraint=eastwest;strokeColor=inherit;fontSize=16;" vertex="1" parent="RdPDJY-nT7dJ_Un5NEoN-11">
          <mxGeometry y="30" width="180" height="30" as="geometry" />
        </mxCell>
        <mxCell id="RdPDJY-nT7dJ_Un5NEoN-13" value="1" style="shape=partialRectangle;html=1;whiteSpace=wrap;connectable=0;fillColor=none;top=0;left=0;bottom=0;right=0;overflow=hidden;pointerEvents=1;strokeColor=inherit;fontSize=16;" vertex="1" parent="RdPDJY-nT7dJ_Un5NEoN-12">
          <mxGeometry width="40" height="30" as="geometry">
            <mxRectangle width="40" height="30" as="alternateBounds" />
          </mxGeometry>
        </mxCell>
        <mxCell id="RdPDJY-nT7dJ_Un5NEoN-14" value="id" style="shape=partialRectangle;html=1;whiteSpace=wrap;connectable=0;fillColor=none;top=0;left=0;bottom=0;right=0;align=left;spacingLeft=6;overflow=hidden;strokeColor=inherit;fontSize=16;" vertex="1" parent="RdPDJY-nT7dJ_Un5NEoN-12">
          <mxGeometry x="40" width="140" height="30" as="geometry">
            <mxRectangle width="140" height="30" as="alternateBounds" />
          </mxGeometry>
        </mxCell>
        <mxCell id="RdPDJY-nT7dJ_Un5NEoN-15" value="" style="shape=tableRow;horizontal=0;startSize=0;swimlaneHead=0;swimlaneBody=0;top=0;left=0;bottom=0;right=0;collapsible=0;dropTarget=0;fillColor=none;points=[[0,0.5],[1,0.5]];portConstraint=eastwest;strokeColor=inherit;fontSize=16;" vertex="1" parent="RdPDJY-nT7dJ_Un5NEoN-11">
          <mxGeometry y="60" width="180" height="30" as="geometry" />
        </mxCell>
        <mxCell id="RdPDJY-nT7dJ_Un5NEoN-16" value="2" style="shape=partialRectangle;html=1;whiteSpace=wrap;connectable=0;fillColor=none;top=0;left=0;bottom=0;right=0;overflow=hidden;strokeColor=inherit;fontSize=16;" vertex="1" parent="RdPDJY-nT7dJ_Un5NEoN-15">
          <mxGeometry width="40" height="30" as="geometry">
            <mxRectangle width="40" height="30" as="alternateBounds" />
          </mxGeometry>
        </mxCell>
        <mxCell id="RdPDJY-nT7dJ_Un5NEoN-17" value="category_id" style="shape=partialRectangle;html=1;whiteSpace=wrap;connectable=0;fillColor=none;top=0;left=0;bottom=0;right=0;align=left;spacingLeft=6;overflow=hidden;strokeColor=inherit;fontSize=16;" vertex="1" parent="RdPDJY-nT7dJ_Un5NEoN-15">
          <mxGeometry x="40" width="140" height="30" as="geometry">
            <mxRectangle width="140" height="30" as="alternateBounds" />
          </mxGeometry>
        </mxCell>
        <mxCell id="RdPDJY-nT7dJ_Un5NEoN-18" value="" style="shape=tableRow;horizontal=0;startSize=0;swimlaneHead=0;swimlaneBody=0;top=0;left=0;bottom=0;right=0;collapsible=0;dropTarget=0;fillColor=none;points=[[0,0.5],[1,0.5]];portConstraint=eastwest;strokeColor=inherit;fontSize=16;" vertex="1" parent="RdPDJY-nT7dJ_Un5NEoN-11">
          <mxGeometry y="90" width="180" height="30" as="geometry" />
        </mxCell>
        <mxCell id="RdPDJY-nT7dJ_Un5NEoN-19" value="3" style="shape=partialRectangle;html=1;whiteSpace=wrap;connectable=0;fillColor=none;top=0;left=0;bottom=0;right=0;overflow=hidden;strokeColor=inherit;fontSize=16;" vertex="1" parent="RdPDJY-nT7dJ_Un5NEoN-18">
          <mxGeometry width="40" height="30" as="geometry">
            <mxRectangle width="40" height="30" as="alternateBounds" />
          </mxGeometry>
        </mxCell>
        <mxCell id="RdPDJY-nT7dJ_Un5NEoN-20" value="" style="shape=partialRectangle;html=1;whiteSpace=wrap;connectable=0;fillColor=none;top=0;left=0;bottom=0;right=0;align=left;spacingLeft=6;overflow=hidden;strokeColor=inherit;fontSize=16;" vertex="1" parent="RdPDJY-nT7dJ_Un5NEoN-18">
          <mxGeometry x="40" width="140" height="30" as="geometry">
            <mxRectangle width="140" height="30" as="alternateBounds" />
          </mxGeometry>
        </mxCell>
        <mxCell id="RdPDJY-nT7dJ_Un5NEoN-21" value="product_sku" style="shape=table;startSize=30;container=1;collapsible=0;childLayout=tableLayout;fixedRows=1;rowLines=0;fontStyle=0;strokeColor=default;fontSize=16;" vertex="1" parent="1">
          <mxGeometry x="841" y="160" width="180" height="120" as="geometry" />
        </mxCell>
        <mxCell id="RdPDJY-nT7dJ_Un5NEoN-22" value="" style="shape=tableRow;horizontal=0;startSize=0;swimlaneHead=0;swimlaneBody=0;top=0;left=0;bottom=0;right=0;collapsible=0;dropTarget=0;fillColor=none;points=[[0,0.5],[1,0.5]];portConstraint=eastwest;strokeColor=inherit;fontSize=16;" vertex="1" parent="RdPDJY-nT7dJ_Un5NEoN-21">
          <mxGeometry y="30" width="180" height="30" as="geometry" />
        </mxCell>
        <mxCell id="RdPDJY-nT7dJ_Un5NEoN-23" value="1" style="shape=partialRectangle;html=1;whiteSpace=wrap;connectable=0;fillColor=none;top=0;left=0;bottom=0;right=0;overflow=hidden;pointerEvents=1;strokeColor=inherit;fontSize=16;" vertex="1" parent="RdPDJY-nT7dJ_Un5NEoN-22">
          <mxGeometry width="40" height="30" as="geometry">
            <mxRectangle width="40" height="30" as="alternateBounds" />
          </mxGeometry>
        </mxCell>
        <mxCell id="RdPDJY-nT7dJ_Un5NEoN-24" value="id" style="shape=partialRectangle;html=1;whiteSpace=wrap;connectable=0;fillColor=none;top=0;left=0;bottom=0;right=0;align=left;spacingLeft=6;overflow=hidden;strokeColor=inherit;fontSize=16;" vertex="1" parent="RdPDJY-nT7dJ_Un5NEoN-22">
          <mxGeometry x="40" width="140" height="30" as="geometry">
            <mxRectangle width="140" height="30" as="alternateBounds" />
          </mxGeometry>
        </mxCell>
        <mxCell id="RdPDJY-nT7dJ_Un5NEoN-25" value="" style="shape=tableRow;horizontal=0;startSize=0;swimlaneHead=0;swimlaneBody=0;top=0;left=0;bottom=0;right=0;collapsible=0;dropTarget=0;fillColor=none;points=[[0,0.5],[1,0.5]];portConstraint=eastwest;strokeColor=inherit;fontSize=16;" vertex="1" parent="RdPDJY-nT7dJ_Un5NEoN-21">
          <mxGeometry y="60" width="180" height="30" as="geometry" />
        </mxCell>
        <mxCell id="RdPDJY-nT7dJ_Un5NEoN-26" value="2" style="shape=partialRectangle;html=1;whiteSpace=wrap;connectable=0;fillColor=none;top=0;left=0;bottom=0;right=0;overflow=hidden;strokeColor=inherit;fontSize=16;" vertex="1" parent="RdPDJY-nT7dJ_Un5NEoN-25">
          <mxGeometry width="40" height="30" as="geometry">
            <mxRectangle width="40" height="30" as="alternateBounds" />
          </mxGeometry>
        </mxCell>
        <mxCell id="RdPDJY-nT7dJ_Un5NEoN-27" value="spu_id" style="shape=partialRectangle;html=1;whiteSpace=wrap;connectable=0;fillColor=none;top=0;left=0;bottom=0;right=0;align=left;spacingLeft=6;overflow=hidden;strokeColor=inherit;fontSize=16;" vertex="1" parent="RdPDJY-nT7dJ_Un5NEoN-25">
          <mxGeometry x="40" width="140" height="30" as="geometry">
            <mxRectangle width="140" height="30" as="alternateBounds" />
          </mxGeometry>
        </mxCell>
        <mxCell id="RdPDJY-nT7dJ_Un5NEoN-28" value="" style="shape=tableRow;horizontal=0;startSize=0;swimlaneHead=0;swimlaneBody=0;top=0;left=0;bottom=0;right=0;collapsible=0;dropTarget=0;fillColor=none;points=[[0,0.5],[1,0.5]];portConstraint=eastwest;strokeColor=inherit;fontSize=16;" vertex="1" parent="RdPDJY-nT7dJ_Un5NEoN-21">
          <mxGeometry y="90" width="180" height="30" as="geometry" />
        </mxCell>
        <mxCell id="RdPDJY-nT7dJ_Un5NEoN-29" value="3" style="shape=partialRectangle;html=1;whiteSpace=wrap;connectable=0;fillColor=none;top=0;left=0;bottom=0;right=0;overflow=hidden;strokeColor=inherit;fontSize=16;" vertex="1" parent="RdPDJY-nT7dJ_Un5NEoN-28">
          <mxGeometry width="40" height="30" as="geometry">
            <mxRectangle width="40" height="30" as="alternateBounds" />
          </mxGeometry>
        </mxCell>
        <mxCell id="RdPDJY-nT7dJ_Un5NEoN-30" value="category_id" style="shape=partialRectangle;html=1;whiteSpace=wrap;connectable=0;fillColor=none;top=0;left=0;bottom=0;right=0;align=left;spacingLeft=6;overflow=hidden;strokeColor=inherit;fontSize=16;" vertex="1" parent="RdPDJY-nT7dJ_Un5NEoN-28">
          <mxGeometry x="40" width="140" height="30" as="geometry">
            <mxRectangle width="140" height="30" as="alternateBounds" />
          </mxGeometry>
        </mxCell>
        <mxCell id="RdPDJY-nT7dJ_Un5NEoN-31" value="product_material" style="shape=table;startSize=30;container=1;collapsible=0;childLayout=tableLayout;fixedRows=1;rowLines=0;fontStyle=0;strokeColor=default;fontSize=16;" vertex="1" parent="1">
          <mxGeometry x="441" y="398" width="180" height="100" as="geometry" />
        </mxCell>
        <mxCell id="RdPDJY-nT7dJ_Un5NEoN-32" value="" style="shape=tableRow;horizontal=0;startSize=0;swimlaneHead=0;swimlaneBody=0;top=0;left=0;bottom=0;right=0;collapsible=0;dropTarget=0;fillColor=none;points=[[0,0.5],[1,0.5]];portConstraint=eastwest;strokeColor=inherit;fontSize=16;" vertex="1" parent="RdPDJY-nT7dJ_Un5NEoN-31">
          <mxGeometry y="30" width="180" height="30" as="geometry" />
        </mxCell>
        <mxCell id="RdPDJY-nT7dJ_Un5NEoN-33" value="1" style="shape=partialRectangle;html=1;whiteSpace=wrap;connectable=0;fillColor=none;top=0;left=0;bottom=0;right=0;overflow=hidden;pointerEvents=1;strokeColor=inherit;fontSize=16;" vertex="1" parent="RdPDJY-nT7dJ_Un5NEoN-32">
          <mxGeometry width="40" height="30" as="geometry">
            <mxRectangle width="40" height="30" as="alternateBounds" />
          </mxGeometry>
        </mxCell>
        <mxCell id="RdPDJY-nT7dJ_Un5NEoN-34" value="id" style="shape=partialRectangle;html=1;whiteSpace=wrap;connectable=0;fillColor=none;top=0;left=0;bottom=0;right=0;align=left;spacingLeft=6;overflow=hidden;strokeColor=inherit;fontSize=16;" vertex="1" parent="RdPDJY-nT7dJ_Un5NEoN-32">
          <mxGeometry x="40" width="140" height="30" as="geometry">
            <mxRectangle width="140" height="30" as="alternateBounds" />
          </mxGeometry>
        </mxCell>
        <mxCell id="RdPDJY-nT7dJ_Un5NEoN-35" value="" style="shape=tableRow;horizontal=0;startSize=0;swimlaneHead=0;swimlaneBody=0;top=0;left=0;bottom=0;right=0;collapsible=0;dropTarget=0;fillColor=none;points=[[0,0.5],[1,0.5]];portConstraint=eastwest;strokeColor=inherit;fontSize=16;" vertex="1" parent="RdPDJY-nT7dJ_Un5NEoN-31">
          <mxGeometry y="60" width="180" height="40" as="geometry" />
        </mxCell>
        <mxCell id="RdPDJY-nT7dJ_Un5NEoN-36" value="2" style="shape=partialRectangle;html=1;whiteSpace=wrap;connectable=0;fillColor=none;top=0;left=0;bottom=0;right=0;overflow=hidden;strokeColor=inherit;fontSize=16;" vertex="1" parent="RdPDJY-nT7dJ_Un5NEoN-35">
          <mxGeometry width="40" height="40" as="geometry">
            <mxRectangle width="40" height="40" as="alternateBounds" />
          </mxGeometry>
        </mxCell>
        <mxCell id="RdPDJY-nT7dJ_Un5NEoN-37" value="url" style="shape=partialRectangle;html=1;whiteSpace=wrap;connectable=0;fillColor=none;top=0;left=0;bottom=0;right=0;align=left;spacingLeft=6;overflow=hidden;strokeColor=inherit;fontSize=16;" vertex="1" parent="RdPDJY-nT7dJ_Un5NEoN-35">
          <mxGeometry x="40" width="140" height="40" as="geometry">
            <mxRectangle width="140" height="40" as="alternateBounds" />
          </mxGeometry>
        </mxCell>
        <mxCell id="RdPDJY-nT7dJ_Un5NEoN-38" value="图片/视频链接存储" style="shape=note;whiteSpace=wrap;html=1;backgroundOutline=1;fontColor=#000000;darkOpacity=0.05;fillColor=#FFF9B2;strokeColor=none;fillStyle=solid;direction=west;gradientDirection=north;gradientColor=#FFF2A1;shadow=1;size=20;pointerEvents=1;" vertex="1" parent="1">
          <mxGeometry x="281" y="428" width="140" height="80" as="geometry" />
        </mxCell>
        <mxCell id="RdPDJY-nT7dJ_Un5NEoN-39" value="商品信息" style="shape=note;whiteSpace=wrap;html=1;backgroundOutline=1;fontColor=#000000;darkOpacity=0.05;fillColor=#FFF9B2;strokeColor=none;fillStyle=solid;direction=west;gradientDirection=north;gradientColor=#FFF2A1;shadow=1;size=20;pointerEvents=1;" vertex="1" parent="1">
          <mxGeometry x="281" y="240" width="140" height="80" as="geometry" />
        </mxCell>
        <mxCell id="RdPDJY-nT7dJ_Un5NEoN-40" value="SKU信息" style="shape=note;whiteSpace=wrap;html=1;backgroundOutline=1;fontColor=#000000;darkOpacity=0.05;fillColor=#FFF9B2;strokeColor=none;fillStyle=solid;direction=west;gradientDirection=north;gradientColor=#FFF2A1;shadow=1;size=20;pointerEvents=1;" vertex="1" parent="1">
          <mxGeometry x="1101" y="235" width="140" height="80" as="geometry" />
        </mxCell>
        <mxCell id="RdPDJY-nT7dJ_Un5NEoN-41" value="实体信息&lt;div&gt;sku对应的货品ID等&lt;/div&gt;" style="shape=note;whiteSpace=wrap;html=1;backgroundOutline=1;fontColor=#000000;darkOpacity=0.05;fillColor=#FFF9B2;strokeColor=none;fillStyle=solid;direction=west;gradientDirection=north;gradientColor=#FFF2A1;shadow=1;size=20;pointerEvents=1;" vertex="1" parent="1">
          <mxGeometry x="1101" y="455" width="140" height="80" as="geometry" />
        </mxCell>
        <mxCell id="RdPDJY-nT7dJ_Un5NEoN-42" value="product_attr_info" style="shape=table;startSize=30;container=1;collapsible=0;childLayout=tableLayout;fixedRows=1;rowLines=0;fontStyle=0;strokeColor=default;fontSize=16;" vertex="1" parent="1">
          <mxGeometry x="441" y="585" width="210" height="120" as="geometry" />
        </mxCell>
        <mxCell id="RdPDJY-nT7dJ_Un5NEoN-43" value="" style="shape=tableRow;horizontal=0;startSize=0;swimlaneHead=0;swimlaneBody=0;top=0;left=0;bottom=0;right=0;collapsible=0;dropTarget=0;fillColor=none;points=[[0,0.5],[1,0.5]];portConstraint=eastwest;strokeColor=inherit;fontSize=16;" vertex="1" parent="RdPDJY-nT7dJ_Un5NEoN-42">
          <mxGeometry y="30" width="210" height="30" as="geometry" />
        </mxCell>
        <mxCell id="RdPDJY-nT7dJ_Un5NEoN-44" value="1" style="shape=partialRectangle;html=1;whiteSpace=wrap;connectable=0;fillColor=none;top=0;left=0;bottom=0;right=0;overflow=hidden;pointerEvents=1;strokeColor=inherit;fontSize=16;" vertex="1" parent="RdPDJY-nT7dJ_Un5NEoN-43">
          <mxGeometry width="40" height="30" as="geometry">
            <mxRectangle width="40" height="30" as="alternateBounds" />
          </mxGeometry>
        </mxCell>
        <mxCell id="RdPDJY-nT7dJ_Un5NEoN-45" value="type_value -&amp;gt; sku.id" style="shape=partialRectangle;html=1;whiteSpace=wrap;connectable=0;fillColor=none;top=0;left=0;bottom=0;right=0;align=left;spacingLeft=6;overflow=hidden;strokeColor=inherit;fontSize=16;" vertex="1" parent="RdPDJY-nT7dJ_Un5NEoN-43">
          <mxGeometry x="40" width="170" height="30" as="geometry">
            <mxRectangle width="170" height="30" as="alternateBounds" />
          </mxGeometry>
        </mxCell>
        <mxCell id="RdPDJY-nT7dJ_Un5NEoN-46" value="" style="shape=tableRow;horizontal=0;startSize=0;swimlaneHead=0;swimlaneBody=0;top=0;left=0;bottom=0;right=0;collapsible=0;dropTarget=0;fillColor=none;points=[[0,0.5],[1,0.5]];portConstraint=eastwest;strokeColor=inherit;fontSize=16;" vertex="1" parent="RdPDJY-nT7dJ_Un5NEoN-42">
          <mxGeometry y="60" width="210" height="30" as="geometry" />
        </mxCell>
        <mxCell id="RdPDJY-nT7dJ_Un5NEoN-47" value="2" style="shape=partialRectangle;html=1;whiteSpace=wrap;connectable=0;fillColor=none;top=0;left=0;bottom=0;right=0;overflow=hidden;strokeColor=inherit;fontSize=16;" vertex="1" parent="RdPDJY-nT7dJ_Un5NEoN-46">
          <mxGeometry width="40" height="30" as="geometry">
            <mxRectangle width="40" height="30" as="alternateBounds" />
          </mxGeometry>
        </mxCell>
        <mxCell id="RdPDJY-nT7dJ_Un5NEoN-48" value="" style="shape=partialRectangle;html=1;whiteSpace=wrap;connectable=0;fillColor=none;top=0;left=0;bottom=0;right=0;align=left;spacingLeft=6;overflow=hidden;strokeColor=inherit;fontSize=16;" vertex="1" parent="RdPDJY-nT7dJ_Un5NEoN-46">
          <mxGeometry x="40" width="170" height="30" as="geometry">
            <mxRectangle width="170" height="30" as="alternateBounds" />
          </mxGeometry>
        </mxCell>
        <mxCell id="RdPDJY-nT7dJ_Un5NEoN-49" value="" style="shape=tableRow;horizontal=0;startSize=0;swimlaneHead=0;swimlaneBody=0;top=0;left=0;bottom=0;right=0;collapsible=0;dropTarget=0;fillColor=none;points=[[0,0.5],[1,0.5]];portConstraint=eastwest;strokeColor=inherit;fontSize=16;" vertex="1" parent="RdPDJY-nT7dJ_Un5NEoN-42">
          <mxGeometry y="90" width="210" height="30" as="geometry" />
        </mxCell>
        <mxCell id="RdPDJY-nT7dJ_Un5NEoN-50" value="3" style="shape=partialRectangle;html=1;whiteSpace=wrap;connectable=0;fillColor=none;top=0;left=0;bottom=0;right=0;overflow=hidden;strokeColor=inherit;fontSize=16;" vertex="1" parent="RdPDJY-nT7dJ_Un5NEoN-49">
          <mxGeometry width="40" height="30" as="geometry">
            <mxRectangle width="40" height="30" as="alternateBounds" />
          </mxGeometry>
        </mxCell>
        <mxCell id="RdPDJY-nT7dJ_Un5NEoN-51" value="" style="shape=partialRectangle;html=1;whiteSpace=wrap;connectable=0;fillColor=none;top=0;left=0;bottom=0;right=0;align=left;spacingLeft=6;overflow=hidden;strokeColor=inherit;fontSize=16;" vertex="1" parent="RdPDJY-nT7dJ_Un5NEoN-49">
          <mxGeometry x="40" width="170" height="30" as="geometry">
            <mxRectangle width="170" height="30" as="alternateBounds" />
          </mxGeometry>
        </mxCell>
        <mxCell id="RdPDJY-nT7dJ_Un5NEoN-52" value="product_version" style="shape=table;startSize=30;container=1;collapsible=0;childLayout=tableLayout;fixedRows=1;rowLines=0;fontStyle=0;strokeColor=default;fontSize=16;" vertex="1" parent="1">
          <mxGeometry x="841" y="605" width="230" height="90" as="geometry" />
        </mxCell>
        <mxCell id="RdPDJY-nT7dJ_Un5NEoN-53" value="" style="shape=tableRow;horizontal=0;startSize=0;swimlaneHead=0;swimlaneBody=0;top=0;left=0;bottom=0;right=0;collapsible=0;dropTarget=0;fillColor=none;points=[[0,0.5],[1,0.5]];portConstraint=eastwest;strokeColor=inherit;fontSize=16;" vertex="1" parent="RdPDJY-nT7dJ_Un5NEoN-52">
          <mxGeometry y="30" width="230" height="30" as="geometry" />
        </mxCell>
        <mxCell id="RdPDJY-nT7dJ_Un5NEoN-54" value="1" style="shape=partialRectangle;html=1;whiteSpace=wrap;connectable=0;fillColor=none;top=0;left=0;bottom=0;right=0;overflow=hidden;pointerEvents=1;strokeColor=inherit;fontSize=16;" vertex="1" parent="RdPDJY-nT7dJ_Un5NEoN-53">
          <mxGeometry width="40" height="30" as="geometry">
            <mxRectangle width="40" height="30" as="alternateBounds" />
          </mxGeometry>
        </mxCell>
        <mxCell id="RdPDJY-nT7dJ_Un5NEoN-55" value="spu_id" style="shape=partialRectangle;html=1;whiteSpace=wrap;connectable=0;fillColor=none;top=0;left=0;bottom=0;right=0;align=left;spacingLeft=6;overflow=hidden;strokeColor=inherit;fontSize=16;" vertex="1" parent="RdPDJY-nT7dJ_Un5NEoN-53">
          <mxGeometry x="40" width="190" height="30" as="geometry">
            <mxRectangle width="190" height="30" as="alternateBounds" />
          </mxGeometry>
        </mxCell>
        <mxCell id="RdPDJY-nT7dJ_Un5NEoN-56" value="" style="shape=tableRow;horizontal=0;startSize=0;swimlaneHead=0;swimlaneBody=0;top=0;left=0;bottom=0;right=0;collapsible=0;dropTarget=0;fillColor=none;points=[[0,0.5],[1,0.5]];portConstraint=eastwest;strokeColor=inherit;fontSize=16;" vertex="1" parent="RdPDJY-nT7dJ_Un5NEoN-52">
          <mxGeometry y="60" width="230" height="30" as="geometry" />
        </mxCell>
        <mxCell id="RdPDJY-nT7dJ_Un5NEoN-57" value="2" style="shape=partialRectangle;html=1;whiteSpace=wrap;connectable=0;fillColor=none;top=0;left=0;bottom=0;right=0;overflow=hidden;strokeColor=inherit;fontSize=16;" vertex="1" parent="RdPDJY-nT7dJ_Un5NEoN-56">
          <mxGeometry width="40" height="30" as="geometry">
            <mxRectangle width="40" height="30" as="alternateBounds" />
          </mxGeometry>
        </mxCell>
        <mxCell id="RdPDJY-nT7dJ_Un5NEoN-58" value="version_id -&amp;gt; spu.version" style="shape=partialRectangle;html=1;whiteSpace=wrap;connectable=0;fillColor=none;top=0;left=0;bottom=0;right=0;align=left;spacingLeft=6;overflow=hidden;strokeColor=inherit;fontSize=16;" vertex="1" parent="RdPDJY-nT7dJ_Un5NEoN-56">
          <mxGeometry x="40" width="190" height="30" as="geometry">
            <mxRectangle width="190" height="30" as="alternateBounds" />
          </mxGeometry>
        </mxCell>
        <mxCell id="RdPDJY-nT7dJ_Un5NEoN-59" value="商品信息版本记录" style="shape=note;whiteSpace=wrap;html=1;backgroundOutline=1;fontColor=#000000;darkOpacity=0.05;fillColor=#FFF9B2;strokeColor=none;fillStyle=solid;direction=west;gradientDirection=north;gradientColor=#FFF2A1;shadow=1;size=20;pointerEvents=1;" vertex="1" parent="1">
          <mxGeometry x="1101" y="645" width="140" height="80" as="geometry" />
        </mxCell>
        <mxCell id="RdPDJY-nT7dJ_Un5NEoN-60" value="sku纬度的属性信息" style="shape=note;whiteSpace=wrap;html=1;backgroundOutline=1;fontColor=#000000;darkOpacity=0.05;fillColor=#FFF9B2;strokeColor=none;fillStyle=solid;direction=west;gradientDirection=north;gradientColor=#FFF2A1;shadow=1;size=20;pointerEvents=1;" vertex="1" parent="1">
          <mxGeometry x="281" y="645" width="140" height="80" as="geometry" />
        </mxCell>
      </root>
    </mxGraphModel>
  </diagram>
  <diagram id="nH8VRo5OpVTyF4SYVs2q" name="组合品架构">
    <mxGraphModel dx="2074" dy="-48" grid="1" gridSize="10" guides="1" tooltips="1" connect="1" arrows="1" fold="1" page="1" pageScale="1" pageWidth="827" pageHeight="1169" math="0" shadow="0">
      <root>
        <mxCell id="0" />
        <mxCell id="1" parent="0" />
        <mxCell id="lmWA34bV2jkMHI32OUxW-1" value="" style="rounded=0;whiteSpace=wrap;html=1;fillColor=none;" vertex="1" parent="1">
          <mxGeometry x="1120" y="1500" width="760" height="300" as="geometry" />
        </mxCell>
        <mxCell id="lmWA34bV2jkMHI32OUxW-2" value="" style="endArrow=none;dashed=1;html=1;rounded=0;" edge="1" parent="1" source="lmWA34bV2jkMHI32OUxW-26">
          <mxGeometry width="50" height="50" relative="1" as="geometry">
            <mxPoint x="1100" y="1650" as="sourcePoint" />
            <mxPoint x="1880" y="1650" as="targetPoint" />
          </mxGeometry>
        </mxCell>
        <mxCell id="lmWA34bV2jkMHI32OUxW-3" style="edgeStyle=orthogonalEdgeStyle;rounded=0;orthogonalLoop=1;jettySize=auto;html=1;exitX=0.5;exitY=1;exitDx=0;exitDy=0;entryX=0.5;entryY=1;entryDx=0;entryDy=0;" edge="1" parent="1" source="lmWA34bV2jkMHI32OUxW-5" target="lmWA34bV2jkMHI32OUxW-30">
          <mxGeometry relative="1" as="geometry">
            <Array as="points">
              <mxPoint x="1482" y="1632" />
              <mxPoint x="1710" y="1632" />
            </Array>
          </mxGeometry>
        </mxCell>
        <mxCell id="lmWA34bV2jkMHI32OUxW-4" value="B未Ready，不可执行" style="edgeLabel;html=1;align=center;verticalAlign=middle;resizable=0;points=[];" vertex="1" connectable="0" parent="lmWA34bV2jkMHI32OUxW-3">
          <mxGeometry x="-0.0486" relative="1" as="geometry">
            <mxPoint as="offset" />
          </mxGeometry>
        </mxCell>
        <mxCell id="lmWA34bV2jkMHI32OUxW-5" value="" style="rounded=0;whiteSpace=wrap;html=1;fillColor=none;dashed=1;" vertex="1" parent="1">
          <mxGeometry x="1354" y="1547" width="256" height="60" as="geometry" />
        </mxCell>
        <mxCell id="lmWA34bV2jkMHI32OUxW-6" value="混合品" style="rounded=0;whiteSpace=wrap;html=1;" vertex="1" parent="1">
          <mxGeometry x="350" y="1364" width="120" height="60" as="geometry" />
        </mxCell>
        <mxCell id="lmWA34bV2jkMHI32OUxW-7" value="组合品" style="rounded=0;whiteSpace=wrap;html=1;" vertex="1" parent="1">
          <mxGeometry x="610" y="1364" width="120" height="60" as="geometry" />
        </mxCell>
        <mxCell id="lmWA34bV2jkMHI32OUxW-8" value="混合品A" style="rounded=0;whiteSpace=wrap;html=1;" vertex="1" parent="1">
          <mxGeometry x="560" y="1495" width="100" height="50" as="geometry" />
        </mxCell>
        <mxCell id="lmWA34bV2jkMHI32OUxW-9" value="混合品B" style="rounded=0;whiteSpace=wrap;html=1;" vertex="1" parent="1">
          <mxGeometry x="680" y="1495" width="100" height="50" as="geometry" />
        </mxCell>
        <mxCell id="lmWA34bV2jkMHI32OUxW-10" value="配置" style="rounded=0;whiteSpace=wrap;html=1;" vertex="1" parent="1">
          <mxGeometry x="131" y="1490" width="120" height="60" as="geometry" />
        </mxCell>
        <mxCell id="lmWA34bV2jkMHI32OUxW-11" value="选品" style="rounded=0;whiteSpace=wrap;html=1;" vertex="1" parent="1">
          <mxGeometry x="130" y="1632" width="120" height="60" as="geometry" />
        </mxCell>
        <mxCell id="lmWA34bV2jkMHI32OUxW-12" value="混合品A" style="rounded=0;whiteSpace=wrap;html=1;" vertex="1" parent="1">
          <mxGeometry x="360" y="1497" width="100" height="50" as="geometry" />
        </mxCell>
        <mxCell id="lmWA34bV2jkMHI32OUxW-13" value="规则 2" style="rounded=0;whiteSpace=wrap;html=1;fillColor=#fff2cc;strokeColor=#d6b656;" vertex="1" parent="1">
          <mxGeometry x="620" y="1637" width="100" height="50" as="geometry" />
        </mxCell>
        <mxCell id="lmWA34bV2jkMHI32OUxW-14" value="" style="endArrow=none;dashed=1;html=1;rounded=0;" edge="1" parent="1">
          <mxGeometry width="50" height="50" relative="1" as="geometry">
            <mxPoint x="120" y="1460" as="sourcePoint" />
            <mxPoint x="900" y="1460" as="targetPoint" />
          </mxGeometry>
        </mxCell>
        <mxCell id="lmWA34bV2jkMHI32OUxW-15" value="" style="endArrow=none;dashed=1;html=1;rounded=0;" edge="1" parent="1">
          <mxGeometry width="50" height="50" relative="1" as="geometry">
            <mxPoint x="120" y="1590" as="sourcePoint" />
            <mxPoint x="900" y="1590" as="targetPoint" />
          </mxGeometry>
        </mxCell>
        <mxCell id="lmWA34bV2jkMHI32OUxW-16" value="" style="endArrow=none;dashed=1;html=1;rounded=0;" edge="1" parent="1">
          <mxGeometry width="50" height="50" relative="1" as="geometry">
            <mxPoint x="280" y="1920" as="sourcePoint" />
            <mxPoint x="280" y="1300" as="targetPoint" />
          </mxGeometry>
        </mxCell>
        <mxCell id="lmWA34bV2jkMHI32OUxW-17" value="" style="endArrow=none;dashed=1;html=1;rounded=0;" edge="1" parent="1">
          <mxGeometry width="50" height="50" relative="1" as="geometry">
            <mxPoint x="530" y="1920" as="sourcePoint" />
            <mxPoint x="530" y="1300" as="targetPoint" />
          </mxGeometry>
        </mxCell>
        <mxCell id="lmWA34bV2jkMHI32OUxW-18" value="结果" style="rounded=0;whiteSpace=wrap;html=1;" vertex="1" parent="1">
          <mxGeometry x="130" y="1829" width="120" height="60" as="geometry" />
        </mxCell>
        <mxCell id="lmWA34bV2jkMHI32OUxW-19" value="混合品A" style="rounded=0;whiteSpace=wrap;html=1;" vertex="1" parent="1">
          <mxGeometry x="296" y="1805" width="100" height="40" as="geometry" />
        </mxCell>
        <mxCell id="lmWA34bV2jkMHI32OUxW-20" value="规则 1" style="rounded=0;whiteSpace=wrap;html=1;fillColor=#ffe6cc;strokeColor=#d79b00;" vertex="1" parent="1">
          <mxGeometry x="406" y="1805" width="50" height="40" as="geometry" />
        </mxCell>
        <mxCell id="lmWA34bV2jkMHI32OUxW-21" value="规则 2" style="rounded=0;whiteSpace=wrap;html=1;fillColor=#fff2cc;strokeColor=#d6b656;" vertex="1" parent="1">
          <mxGeometry x="456" y="1805" width="50" height="40" as="geometry" />
        </mxCell>
        <mxCell id="lmWA34bV2jkMHI32OUxW-22" value="混合品B" style="rounded=0;whiteSpace=wrap;html=1;" vertex="1" parent="1">
          <mxGeometry x="1500" y="1557" width="100" height="40" as="geometry" />
        </mxCell>
        <mxCell id="lmWA34bV2jkMHI32OUxW-23" value="组合品B" style="rounded=0;whiteSpace=wrap;html=1;" vertex="1" parent="1">
          <mxGeometry x="590" y="1839" width="100" height="40" as="geometry" />
        </mxCell>
        <mxCell id="lmWA34bV2jkMHI32OUxW-24" value="规则 2" style="rounded=0;whiteSpace=wrap;html=1;fillColor=#fff2cc;strokeColor=#d6b656;" vertex="1" parent="1">
          <mxGeometry x="700" y="1839" width="50" height="40" as="geometry" />
        </mxCell>
        <mxCell id="lmWA34bV2jkMHI32OUxW-25" value="" style="endArrow=none;dashed=1;html=1;rounded=0;" edge="1" parent="1">
          <mxGeometry width="50" height="50" relative="1" as="geometry">
            <mxPoint x="110" y="1750" as="sourcePoint" />
            <mxPoint x="890" y="1750" as="targetPoint" />
          </mxGeometry>
        </mxCell>
        <mxCell id="lmWA34bV2jkMHI32OUxW-26" value="&lt;font style=&quot;font-size: 32px;&quot;&gt;选&lt;/font&gt;&lt;div&gt;&lt;font style=&quot;font-size: 32px;&quot;&gt;品&lt;/font&gt;&lt;/div&gt;&lt;div&gt;&lt;font style=&quot;font-size: 32px;&quot;&gt;任&lt;/font&gt;&lt;/div&gt;&lt;div&gt;&lt;font style=&quot;font-size: 32px;&quot;&gt;务&lt;/font&gt;&lt;/div&gt;" style="rounded=0;whiteSpace=wrap;html=1;" vertex="1" parent="1">
          <mxGeometry x="1120" y="1500" width="80" height="300" as="geometry" />
        </mxCell>
        <mxCell id="lmWA34bV2jkMHI32OUxW-27" value="第一次" style="text;html=1;align=center;verticalAlign=middle;whiteSpace=wrap;rounded=0;" vertex="1" parent="1">
          <mxGeometry x="1260" y="1562" width="60" height="30" as="geometry" />
        </mxCell>
        <mxCell id="lmWA34bV2jkMHI32OUxW-28" value="第二次" style="text;html=1;align=center;verticalAlign=middle;whiteSpace=wrap;rounded=0;" vertex="1" parent="1">
          <mxGeometry x="1260" y="1710" width="60" height="30" as="geometry" />
        </mxCell>
        <mxCell id="lmWA34bV2jkMHI32OUxW-29" value="混合品A" style="rounded=0;whiteSpace=wrap;html=1;" vertex="1" parent="1">
          <mxGeometry x="1364" y="1557" width="100" height="40" as="geometry" />
        </mxCell>
        <mxCell id="lmWA34bV2jkMHI32OUxW-30" value="组合品B" style="rounded=0;whiteSpace=wrap;html=1;" vertex="1" parent="1">
          <mxGeometry x="1660" y="1557" width="100" height="40" as="geometry" />
        </mxCell>
        <mxCell id="lmWA34bV2jkMHI32OUxW-31" style="edgeStyle=orthogonalEdgeStyle;rounded=0;orthogonalLoop=1;jettySize=auto;html=1;exitX=0.5;exitY=0;exitDx=0;exitDy=0;entryX=0.48;entryY=-0.017;entryDx=0;entryDy=0;entryPerimeter=0;" edge="1" parent="1" source="lmWA34bV2jkMHI32OUxW-30" target="lmWA34bV2jkMHI32OUxW-5">
          <mxGeometry relative="1" as="geometry">
            <Array as="points">
              <mxPoint x="1710" y="1522" />
              <mxPoint x="1477" y="1522" />
            </Array>
          </mxGeometry>
        </mxCell>
        <mxCell id="lmWA34bV2jkMHI32OUxW-32" value="检测混合品是否已选品" style="edgeLabel;html=1;align=center;verticalAlign=middle;resizable=0;points=[];" vertex="1" connectable="0" parent="lmWA34bV2jkMHI32OUxW-31">
          <mxGeometry x="0.1661" y="-2" relative="1" as="geometry">
            <mxPoint as="offset" />
          </mxGeometry>
        </mxCell>
        <mxCell id="lmWA34bV2jkMHI32OUxW-33" value="" style="verticalLabelPosition=bottom;verticalAlign=top;html=1;shape=mxgraph.basic.x;fillColor=#FF8C8C;strokeColor=#FF0808;fillStyle=dots;" vertex="1" parent="1">
          <mxGeometry x="1530" y="1557" width="40" height="40" as="geometry" />
        </mxCell>
        <mxCell id="lmWA34bV2jkMHI32OUxW-34" value="" style="verticalLabelPosition=bottom;verticalAlign=top;html=1;shape=mxgraph.basic.tick;fillStyle=dots;fillColor=#00CC66;strokeColor=#00CC66;" vertex="1" parent="1">
          <mxGeometry x="1400" y="1557" width="40" height="40" as="geometry" />
        </mxCell>
        <mxCell id="lmWA34bV2jkMHI32OUxW-35" value="" style="verticalLabelPosition=bottom;verticalAlign=top;html=1;shape=mxgraph.basic.x;fillColor=#FF8C8C;strokeColor=#FF0808;fillStyle=dots;" vertex="1" parent="1">
          <mxGeometry x="1690" y="1557" width="40" height="40" as="geometry" />
        </mxCell>
        <mxCell id="lmWA34bV2jkMHI32OUxW-36" style="edgeStyle=orthogonalEdgeStyle;rounded=0;orthogonalLoop=1;jettySize=auto;html=1;exitX=0.5;exitY=1;exitDx=0;exitDy=0;entryX=0.5;entryY=1;entryDx=0;entryDy=0;" edge="1" parent="1" source="lmWA34bV2jkMHI32OUxW-38" target="lmWA34bV2jkMHI32OUxW-41">
          <mxGeometry relative="1" as="geometry">
            <Array as="points">
              <mxPoint x="1482" y="1780" />
              <mxPoint x="1710" y="1780" />
            </Array>
          </mxGeometry>
        </mxCell>
        <mxCell id="lmWA34bV2jkMHI32OUxW-37" value="均Ready，可执行" style="edgeLabel;html=1;align=center;verticalAlign=middle;resizable=0;points=[];" vertex="1" connectable="0" parent="lmWA34bV2jkMHI32OUxW-36">
          <mxGeometry x="-0.0486" relative="1" as="geometry">
            <mxPoint as="offset" />
          </mxGeometry>
        </mxCell>
        <mxCell id="lmWA34bV2jkMHI32OUxW-38" value="" style="rounded=0;whiteSpace=wrap;html=1;fillColor=none;dashed=1;" vertex="1" parent="1">
          <mxGeometry x="1354" y="1695" width="256" height="60" as="geometry" />
        </mxCell>
        <mxCell id="lmWA34bV2jkMHI32OUxW-39" value="混合品B" style="rounded=0;whiteSpace=wrap;html=1;" vertex="1" parent="1">
          <mxGeometry x="1500" y="1705" width="100" height="40" as="geometry" />
        </mxCell>
        <mxCell id="lmWA34bV2jkMHI32OUxW-40" value="混合品A" style="rounded=0;whiteSpace=wrap;html=1;" vertex="1" parent="1">
          <mxGeometry x="1364" y="1705" width="100" height="40" as="geometry" />
        </mxCell>
        <mxCell id="lmWA34bV2jkMHI32OUxW-41" value="组合品B" style="rounded=0;whiteSpace=wrap;html=1;" vertex="1" parent="1">
          <mxGeometry x="1660" y="1705" width="100" height="40" as="geometry" />
        </mxCell>
        <mxCell id="lmWA34bV2jkMHI32OUxW-42" style="edgeStyle=orthogonalEdgeStyle;rounded=0;orthogonalLoop=1;jettySize=auto;html=1;exitX=0.5;exitY=0;exitDx=0;exitDy=0;entryX=0.48;entryY=-0.017;entryDx=0;entryDy=0;entryPerimeter=0;" edge="1" parent="1" source="lmWA34bV2jkMHI32OUxW-41" target="lmWA34bV2jkMHI32OUxW-38">
          <mxGeometry relative="1" as="geometry">
            <Array as="points">
              <mxPoint x="1710" y="1670" />
              <mxPoint x="1477" y="1670" />
            </Array>
          </mxGeometry>
        </mxCell>
        <mxCell id="lmWA34bV2jkMHI32OUxW-43" value="检测混合品是否已选品" style="edgeLabel;html=1;align=center;verticalAlign=middle;resizable=0;points=[];" vertex="1" connectable="0" parent="lmWA34bV2jkMHI32OUxW-42">
          <mxGeometry x="0.1661" y="-2" relative="1" as="geometry">
            <mxPoint as="offset" />
          </mxGeometry>
        </mxCell>
        <mxCell id="lmWA34bV2jkMHI32OUxW-44" value="" style="verticalLabelPosition=bottom;verticalAlign=top;html=1;shape=mxgraph.basic.tick;fillStyle=dots;fillColor=#00CC66;strokeColor=#00CC66;" vertex="1" parent="1">
          <mxGeometry x="1400" y="1705" width="40" height="40" as="geometry" />
        </mxCell>
        <mxCell id="lmWA34bV2jkMHI32OUxW-45" value="" style="verticalLabelPosition=bottom;verticalAlign=top;html=1;shape=mxgraph.basic.tick;fillStyle=dots;fillColor=#00CC66;strokeColor=#00CC66;" vertex="1" parent="1">
          <mxGeometry x="1530" y="1705" width="40" height="40" as="geometry" />
        </mxCell>
        <mxCell id="lmWA34bV2jkMHI32OUxW-46" value="" style="verticalLabelPosition=bottom;verticalAlign=top;html=1;shape=mxgraph.basic.tick;fillStyle=dots;fillColor=#00CC66;strokeColor=#00CC66;" vertex="1" parent="1">
          <mxGeometry x="1690" y="1705" width="40" height="40" as="geometry" />
        </mxCell>
        <mxCell id="lmWA34bV2jkMHI32OUxW-47" value="混合品B" style="rounded=0;whiteSpace=wrap;html=1;" vertex="1" parent="1">
          <mxGeometry x="296" y="1870" width="100" height="40" as="geometry" />
        </mxCell>
        <mxCell id="lmWA34bV2jkMHI32OUxW-48" value="规则 2" style="rounded=0;whiteSpace=wrap;html=1;fillColor=#fff2cc;strokeColor=#d6b656;" vertex="1" parent="1">
          <mxGeometry x="406" y="1870" width="50" height="40" as="geometry" />
        </mxCell>
        <mxCell id="lmWA34bV2jkMHI32OUxW-49" value="规则 1" style="rounded=0;whiteSpace=wrap;html=1;fillColor=#ffe6cc;strokeColor=#d79b00;" vertex="1" parent="1">
          <mxGeometry x="360" y="1637" width="100" height="50" as="geometry" />
        </mxCell>
        <mxCell id="lmWA34bV2jkMHI32OUxW-50" value="" style="endArrow=classic;html=1;rounded=0;exitX=0;exitY=1;exitDx=0;exitDy=0;fillColor=#e1d5e7;strokeColor=#9673a6;dashed=1;" edge="1" parent="1" source="lmWA34bV2jkMHI32OUxW-13">
          <mxGeometry width="50" height="50" relative="1" as="geometry">
            <mxPoint x="610" y="1810" as="sourcePoint" />
            <mxPoint x="460" y="1870" as="targetPoint" />
          </mxGeometry>
        </mxCell>
        <mxCell id="lmWA34bV2jkMHI32OUxW-51" value="" style="endArrow=classic;html=1;rounded=0;exitX=0;exitY=1;exitDx=0;exitDy=0;entryX=1;entryY=0;entryDx=0;entryDy=0;fillColor=#e1d5e7;strokeColor=#9673a6;dashed=1;" edge="1" parent="1" source="lmWA34bV2jkMHI32OUxW-13" target="lmWA34bV2jkMHI32OUxW-21">
          <mxGeometry width="50" height="50" relative="1" as="geometry">
            <mxPoint x="655" y="1697" as="sourcePoint" />
            <mxPoint x="470" y="1880" as="targetPoint" />
          </mxGeometry>
        </mxCell>
        <mxCell id="lmWA34bV2jkMHI32OUxW-52" value="" style="endArrow=classic;html=1;rounded=0;exitX=0.5;exitY=1;exitDx=0;exitDy=0;entryX=0.5;entryY=0;entryDx=0;entryDy=0;fillColor=#f8cecc;strokeColor=#b85450;dashed=1;" edge="1" parent="1" source="lmWA34bV2jkMHI32OUxW-49" target="lmWA34bV2jkMHI32OUxW-20">
          <mxGeometry width="50" height="50" relative="1" as="geometry">
            <mxPoint x="280" y="1760" as="sourcePoint" />
            <mxPoint x="330" y="1710" as="targetPoint" />
          </mxGeometry>
        </mxCell>
        <mxCell id="lmWA34bV2jkMHI32OUxW-53" value="" style="endArrow=classic;html=1;rounded=0;exitX=0.5;exitY=1;exitDx=0;exitDy=0;entryX=0.5;entryY=0;entryDx=0;entryDy=0;fillColor=#e1d5e7;strokeColor=#9673a6;dashed=1;" edge="1" parent="1" source="lmWA34bV2jkMHI32OUxW-13" target="lmWA34bV2jkMHI32OUxW-24">
          <mxGeometry width="50" height="50" relative="1" as="geometry">
            <mxPoint x="780" y="1750" as="sourcePoint" />
            <mxPoint x="830" y="1700" as="targetPoint" />
          </mxGeometry>
        </mxCell>
      </root>
    </mxGraphModel>
  </diagram>
</mxfile>
